<mxfile host="65bd71144e">
    <diagram id="HIP3nbAZw_EuaXWnEj3U" name="Page-1">
        <mxGraphModel dx="1086" dy="743" grid="1" gridSize="10" guides="1" tooltips="1" connect="1" arrows="1" fold="1" page="1" pageScale="1" pageWidth="850" pageHeight="1100" background="#99CCFF" math="0" shadow="0">
            <root>
                <mxCell id="0"/>
                <mxCell id="1" parent="0"/>
                <mxCell id="7" value="http://ics2o.mths.ca" style="swimlane;whiteSpace=wrap;html=1;" parent="1" vertex="1">
                    <mxGeometry x="40" y="40" width="760" height="480" as="geometry"/>
                </mxCell>
                <mxCell id="9" value="http://ics2o.mths.ca" style="swimlane;whiteSpace=wrap;html=1;rounded=1;labelBackgroundColor=none;fillColor=#0050ef;fontColor=#ffffff;strokeColor=#001DBC;" vertex="1" parent="1">
                    <mxGeometry x="30" y="60" width="760" height="480" as="geometry"/>
                </mxCell>
                <mxCell id="10" value="&lt;font style=&quot;font-size: 25px;&quot;&gt;area of a trapeziod&amp;nbsp;&lt;/font&gt;" style="text;html=1;align=center;verticalAlign=middle;resizable=0;points=[];autosize=1;rounded=1;" vertex="1" parent="9">
                    <mxGeometry x="10" y="35" width="240" height="40" as="geometry"/>
                </mxCell>
                <mxCell id="11" value="&lt;span class=&quot;custom-cursor-default-hover&quot; style=&quot;font-size: 17px;&quot;&gt;formula: V=(LxWxH)/3&lt;br&gt;&lt;/span&gt;" style="text;html=1;align=center;verticalAlign=middle;resizable=0;points=[];autosize=1;fontSize=27;rounded=1;" vertex="1" parent="9">
                    <mxGeometry x="-5" y="75" width="190" height="50" as="geometry"/>
                </mxCell>
                <mxCell id="13" value="" style="rounded=1;whiteSpace=wrap;html=1;fontSize=16;" vertex="1" parent="9">
                    <mxGeometry x="70" y="160" width="70" height="10" as="geometry"/>
                </mxCell>
                <mxCell id="14" value="width" style="text;html=1;align=center;verticalAlign=middle;resizable=0;points=[];autosize=1;fontSize=16;rounded=1;" vertex="1" parent="9">
                    <mxGeometry x="5" y="200" width="60" height="30" as="geometry"/>
                </mxCell>
                <mxCell id="15" value="" style="rounded=1;whiteSpace=wrap;html=1;fontSize=16;" vertex="1" parent="9">
                    <mxGeometry x="70" y="210" width="70" height="10" as="geometry"/>
                </mxCell>
                <mxCell id="16" value="height" style="text;html=1;align=center;verticalAlign=middle;resizable=0;points=[];autosize=1;fontSize=16;rounded=1;" vertex="1" parent="9">
                    <mxGeometry x="5" y="245" width="70" height="30" as="geometry"/>
                </mxCell>
                <mxCell id="17" style="edgeStyle=none;html=1;fontSize=16;rounded=1;" edge="1" parent="9" source="18" target="16">
                    <mxGeometry relative="1" as="geometry"/>
                </mxCell>
                <mxCell id="18" value="" style="rounded=1;whiteSpace=wrap;html=1;fontSize=16;" vertex="1" parent="9">
                    <mxGeometry x="75" y="255" width="70" height="10" as="geometry"/>
                </mxCell>
                <mxCell id="20" value="&lt;span id=&quot;docs-internal-guid-5bcae333-7fff-8e88-4539-eeaf8cc828ad&quot;&gt;&lt;span style=&quot;font-size: 10.5pt; font-family: Consolas, sans-serif; color: rgb(230, 237, 243); background-color: transparent; font-style: italic; font-variant-numeric: normal; font-variant-east-asian: normal; font-variant-alternates: normal; vertical-align: baseline;&quot;&gt;&amp;nbsp;Calculate&lt;/span&gt;&lt;/span&gt;" style="rounded=1;whiteSpace=wrap;html=1;fontSize=16;fillColor=#d80073;fontColor=#ffffff;strokeColor=#A50040;" vertex="1" parent="9">
                    <mxGeometry x="35" y="310" width="110" height="40" as="geometry"/>
                </mxCell>
                <mxCell id="21" value="&lt;font class=&quot;custom-cursor-default-hover&quot; style=&quot;font-size: 15px;&quot;&gt;the volume is: __ mm&lt;/font&gt;" style="text;html=1;align=center;verticalAlign=middle;resizable=0;points=[];autosize=1;fontSize=16;rounded=1;" vertex="1" parent="9">
                    <mxGeometry y="380" width="160" height="30" as="geometry"/>
                </mxCell>
                <mxCell id="22" value="" style="shape=image;verticalLabelPosition=bottom;labelBackgroundColor=default;verticalAlign=top;aspect=fixed;imageAspect=0;image=data:image/png,iVBORw0KGgoAAAANSUhEUgAAANwAAADgCAYAAABo4ghXAAABI2lDQ1BTa2lhAAAokX2QPU/CUBSGH5FFA4Mfg4NDN13UUqXRyCIGCCtoAjqYUkpjBGxKja7u/gfd/APObu4mJk7+COPg7FuIaROD5+Tc+9xzTu75gMwKkqwJg2EUNmplo9U+MUiJ444CpssMfL/HJ7xt/JM3Tea63sjV/SmLQhXXl13xsj/hm5g7E76L+ToKIvFDzOFR41D8JF73U9xJsRuEcf6HuDToX7lJ3+S84XFTd0u2So1LqU8fjy2aXHCOIyqzKzWpsoclLXDAjnibomJVKnpZ2MqxZMXxaStSGWdWk32e5cHcV+n7xBfU4Vl95lK+tVtYWISX2cSX7DhwQmfsysoyvR58PUK+DUuvMH/6u9gpsxp/ZjWoM8RlU2RpzgL2DxPKR/EkFRBdAAAehElEQVR4nO3deXeTV54n8K/0aLetxdiWN7yAwQmBEAiEsGMsY5tMIH26qqsr1TNdp6ara87pnjlnzpkXMK9halJ1Kumuqdm6a6q7E8Adm51AWAKEPTikAmgxyJIta7EtedMyf8gSsi1ZeqRnk/T7nMM5sSw/ug755t7nub97r6ytvSMGQogg5GI3gJByQoEjREAUOEIERIEjREAUOEIERIEjREAUOEIERIEjREAUOEIERIEjREAUOEIERIEjREAUOEIERIEjREAUOEIERIEjREAUOEIERIEjREAUOEIERIEjREAUOEIERIEjREAUOEIERIEjREAUOEIERIEjREAUOEIERIEjREAUOEIERIEjREAUOIlobGrC3/7n/4KW1jaxm0J4RIGTiMM9vVCqlHjv+J+AYRixm0N4QoGTgHf37gNkMjz59lvMzs7g6LEPxG4S4QkFTmTm+gYc6OrGra+uw+0aRSwag95gwK7de8VuGuEBBU5klr5+XP/yCkadTrjdLtTU1uLSubPYe+Ag2tetF7t5hGMUOBHt3X8QszMzeP78KULBIADAbrNCbzBgcOAk+o8dh66iQuRWEi5R4ETS2NSMd/ftx7WrVzA3O4tIOAwgHrjWtnY8GX6Mbx48wNH3j4vcUsIlCpxILH39uHBmCOFwONm7AfHAtbS1AwCuXLoAADjQ1S1KGwn3KHAi2H/oMCYDATx+9BBKpRIzoVDye+7RUWi1WhiMRgDA4MBJbH5zK17b9IZYzSUcosAJbG1LK3a8swsXzpyGrrICoeD0ivckhpUAEAoGMTRwEkffP47qNWuEbi7hGAVOYJbePpw/M4SpqUloKyoRmg6ueE/qsBIArM+f4dqVy3Q/VwIocAI61G3BhMeDRw/uQ6vTIbywgIWFhRXvc6T0cAk3b1xDIOBHT/97QjWX8IACJ5DW9nV4c9t2nD9zGgCgq6hY8rAklXdiApFIBLV1dUteHzx1Ei2trdi6/W3e20v4QYETSGIoGQoFwSgUUGs0CE2vvH9LcCwbVgJAJBLB4Kn4/VxDYxPfTSY8oMAJoPtIL1yjTgw/egRg9d4twZ5mWAkAo86XGBw4iaPHjlORcxGiwPFsXUcHXntjc3IoCRQWOAB4cPcOHHY7FTkXIQocj2QyGSy9/bhw5jTmZmcBAGqNBrFYFPNzc6v+7PTUFCYDATQ2N6f9/rmhz2GgIueiQ4HjkaWvHw67DU+GHydf01WmnwpIZ7VeDohPilORc3GhwPFkQ2cnOjZsxIWUoaRcLs9pOJmQLXDeiQkqci4yFDgeKBQKWHr7cf7M6SXzbImwRaPRnK6TmACXyWQZ30NFzsWFAscDS18/nn3/Pb7/7smS13WVFZhJU8qVyfzcHEadL9HanrmXA6jIuZhQ4DjW+fomtLS24fyZoSWvq9RqyGRyzM7Msrqe3br6sDJhaOAkNm+lImepo8BxSK1Ww9IXH0ouHzayuXdLtbyuMpNgMIihU1TkLHUUOA5Zevvx5PFjPH/6/Yrv5Rs4h82KhsZGqNWarO9NFDn30/2cZFHgOLJp8xbUNzbiwtnTK76nq6xcsqqbjVgsFn9a2Z7bfpU3b1zDZCBARc4SRYHjgFanS05wp5Nv75bgsNpyGlYmDJ46QUXOEkWB44Cltx8P79+Dzfp8xfeUSuWKVd1sZZuPWy4SicTrLanIWXIocAXasvUt1NTU4osL59J+P9OqbjacL1+gSq9HVZU+558ZfUlFzlJEgStAZVVVfIL77FDG92Ra1c1WfLkOu3MHXhU500MUqaDAFcDS2487t29ixG5P+/3VVnWzZbfask6ApxMvcjZSkbNEUODytHX729AbDLhy6WLG9xT6sCQV2/u4VIki5zYqchYdBS4PBqMxuYI7k1xWdbPhGR+DXC5H9Zoa1j+bKHI++j4VOYuNApcHS28/vrp2Fc4XLzK+h8veLSHey+V3ftyT4cf45iEVOYuNAsfS9p3vQKPV4tqVy6u+j7/A5TesBKjIWQoocCxUV6+BpbcPF1YZSgK5r+pmy2G1oSWPByepqMhZXBQ4Fix9/bhy6SJco6Orvo/Nqm42AgE/ZkIh1Dc05n0NKnIWFwUuRzt37QbDMPjq2tVV38d2VTdbhdzHJVifP8O1L6nIWQwUuBzU1NbB0te3ZOetTNiu6mYr3X6V+bh5PVHkfJSDVpFcUeByYOnrw4UzpzE+5s76XrarutnKdwI8nXiRcxsVOQuIApfFu3v2IhqJ4tZXN7K+N99V3WzMzIQwPjaGltbChpUAFTmLgQK3CnN9Aw4etuQ0lAT4mQpIJ5+6ykyoyFlYFLhVJKpJvBOenN4vVOAKnY9b7sHdOxix22lSXAAUuAz27D+A2dlZ3Ll9K6f3F7Kqmy271YaW1jYolErOrnl26HMYjFTkzDcKXBqNTU3Ys/9AxhXc6QjVuwFAJBLmvJcDqMhZCBS4NBKbuPr9vpzer1QqoShwVTdbXMzHLUdFzvyjwC2z/1AXpqYmcf/O1zn/DN9TAenkun0eW1TkzC8KXIrmlhbs2PVuzk8lE7ha1c3GC4cDa2pqeOmJ4kXOMhzoOsz5tcsdBS5FYig5NTmZ889wuaqbrVx3Zc7H0MAJbN76FhU5c4wCt+hQtwXeCQ8e3b/H6ueEfFiynJ3D+bjlEkXO/e8fR3U1FTlzhQIHoLW9HVtTDrzPFderutly8PCkMpX1+TNc//Iy+mkTIs5Q4PBqKMm2pxKzdwMAt8sFtUYDo8nE22dQkTO3yj5wh4/0wjU6isePHrL+WbEDBwAOKz9PK1MNnjoZL3LeRkXOhSrrwK1b34FNb2zJuoI7Hb5WdbPFxwT4cpFIOFlvSUXOhSnbwMlkssWjpYYwO8u+up+vVd1s8TEBns7oy5cYoiLngpVt4Cy9/Rix25cceJ8rvld1s+HzehEOh1FbZ+b9s+5TkXPByjJwHRs70bGxc9V9JVfD96putuxWK2eLUrOJFzmb8A4VOeel7AL36sD7obwnq8Uo5VqNEPdxqQYHTmAfFTnnpewCZ+ntx/OnKw+8zxWfq7qnAoG8fo7PCfB0qMg5f2UVuM7XN6G1vT3voSTA71TApN+f188Fp6cR8PvR1LyW4xZlRkXO+SmbwKnU6vgK7tNDBd17SeVhyXLxY4mFG1YCi0XOMipyZqNsAmfp7ceTb4fxLM2B97kSclU3W0JMgKczdIqKnNkoi8Bt2rwFjU1NrFZwp8N57yavxaaeH+En/+Fv8fM/3YaqAi6VmI+Ty4X9K6UiZ3ZKPnDxA+9XP1oqF7ys6o6OY/jCZTydAqbGRjFVwKXm5+fx8sULQZ9WJlCRc+5KPnCW3j48enAftucrD7xng7epAFU1aiojmHCNF3wprnZlzgcVOeempAO3eetbqKmtw6Xz6Q+8Z4O3Vd119TDKxuF2RQq+lJAT4OlQkXN2JRu4ysoqToaSAL+ruo11tdAFxxGqfRc9f/Yz/OwXP8OxHfXIp1rRbrPCXN8AjUbDeTtzQUXO2ZVs4Cx9fbh7+1bGA+/Z4G8qQA1zfTXAmGCUfYeLf/g9rowwML/eiZo8/2bEHFYCVOScTUkGbuv2t2EwGFc98D5XvK7qltfCXMNg4sFFfP3MhwhCCIUiwEwQoTynCoUu80qHipwzK7nAGQyJA+8LmwJI4HWiu6oeNZoQ3K7EpkV6mGt0CHlceT+xFPs+LuFVkfMesZsiKSUXuO7ePnx17Spevhjh5Hp8Bo6pb4AxMg534ugCTTPMayIYe7n6CaurGXW+RGVlFar0em4aWYDBgRPYd/AQFTmnKKnAbd+xEzqdLuuB97nie1W3ua4WTGAUnsVnMUx9M8wcPLGUwrASWCxyPkVFzqlKJnCm6urkZkBc4XdVtx41dTqExlxIlCxX1dVCFQlissC5dakEDqAi5+VKJnCW3n5c+eIiXKNOTq7H+6puZS3M1RFMjL2a8A5NjGMKzdjZsxeddeq8Ly32k8rlqMj5FYXYDeDCzl3vQqFUZD3wng3eV3UvPMO5T3695KX5Z2fx+2eFX9ozPg6ZTIY1NTWY8OR2th3fhk6dxE9//tcYc7vz2taiVBR9D1dTW4vu3n6cP83dUBKQ3qputqQ0rASAYHAag4tFzqYyLnIu+sBZevtx8eyZnA68z5UQZ3XzTWrDSuBVkfPRMi5yLurA7dqzF9FYDLe+us7pdcVaZKo3Gjm7ltR6uIRyL3Iu2sCZ6+txqNuS1yau2YgVuCqDgbNrTQYCCAaDaGhs5OyaXBkcOImW1vh5DuWmaAPXvTgFwPVDASmv6mZLisNKAIiEwxgcOIGjxz4ouyLnogzcnv0HMD83hzu3bnJ+banuWZIPqQ4rgZQi5/fLq8i56ALX0NSEPfsPcrLsZjkxzurmk5QDBywWOTvs6C+jSfGiC1xiE1e/L7cD79ko9qmA5WZnZjDmdgm6ZyVbZ4c+h7GMipyLKnD7D3VhemqK1YH3bOhEOKubb3abTdK9HFBeRc5FE7jmtS3YuWs3L0NJIL6qe0Gks7r5JPVhJVBeRc5FE7jEdglsDrxno5QelqRy2KxobmmBUqkUuymrKpci56II3MHDFni9XjxkeeB9rsQ+q5tPkUhElF2Z81EORc6SD1xrWzveevttXia4E0q1d0uwW22SnI9LZ+jUSWzZug2vvb5J7KbwQvKB6148DyDIYyBKPXCOIriPSwgGpzE4cAL9xz4oySJnSQfucE8vxlyuvA68z5VGK42zuvn0YsQBU3U1KorkgYT1WekWOUs2cO3rO7Bpyxbenkom8LbBq8TYJVrmlUmyyLmvtIqcJRk4mUyWPFoqnwPvcyWls7r55rDaiuLBSarBgZNoaSutImdJBs7S24cXIw7eVwZL7axuPhXDfNxykXAYQyVW5Cy5wHVs7MSGztc4X8Gdjq6yoiSnAtIZc7ugUqlgNJnEbgorzhIrcpZU4BiFIjnBvbAwz+tnJVZ1z/E4ZJWaYuzlgNIqcpZU4Cy9fXj+7Cn++CS/A+/ZKJd7t1RS2ZU5H6VS5CyZwHW+vglt7esKPqU0V+UYOIeteCbA0xkcOLlY5LxO7KbkTRKBU6nU8QnuM6cRiRR+Tlo2pbSqmw2fz4uF+XnUmevFbkpevBOexSLnD6DTFcec4nKSCJylrw9//HYYz77/oyCfV469W0LiLPBilSxyLtJJcdED9/obm9HY1MzpFuWrKbVV3Ww5bFa0FOl9XMKVSxcgK9IiZ1EDp9VqOT8PYDVKlQqmmhrI5XLUNTRgTW0tDCYTKvV6aHQ6KFUqyOWi/z+IV3ar9Bek5mJwsci5s8iKnEXd6tzS249vHj6A7TkH+3tnoTcYUGkwYNLnQygYBKNQQKFQgFn8o9ZowDAMFAoFYohPuobDYUQW/4TDYUQiEYTDYcSKeKI8GJyGz+tF89oWvBhxiN2cvCWKnD/4wY8w5nbD550Qu0k5ES1wm9/cito6MwZOfMrr56g1GhhMJoTDC3A7nckHJdH5eSzMp5/rk8vlS8KoUCqh1mqTIY3FYivDmPLPsViM19+pUPHt89qKOnDA0iLn//u734rdnJyIErjKykpYevvx6R9+z9tnyGQy6I1G6CoqEFjs1XIVjUYxPz8PZArkYk/IMAwYhQJKpRIarTYZ0lg0uqRHXB5MsQNpt1mxc9duXP/yiqjt4MLN69dQZ65HT99RnDs9KHZzshIlcN29/bj79W047DZerq/V6WAwmTA7MwO308l5rWQ0EsH8KtMXiSAmesTlgYxGoytCGF68nkwm4z2QdpsNP/jzD8EwjCDTMHwbHDiJn/7VL7B123Y8uHdX7OasSvDAbd22HUaTCSf/5Z84v7acYWAwGaFSqeH3ejE7M8P5Z+QiEonE/0POsMYuEchEAJVqNbSK+F9Fw9q1yUCmHbZGIgUHcmF+Hi8cDrS0tcP67GlB15KCRJHzX/7VLzDmdmHUyc0ZgXxgjKbq/yrUh+kNBvzgzz/EwKf/wvlmQBWVlVhTV4e52Vl4x8cRlvCkdiwWQyQSwcLCAubn5jA7M4NQMAi90Qinw4GZUAjzc3OIRaOQyeVQqlTQ6HSo0OthMJlQUVkJbUUF1BoNVCoVGIUCcrkcMiDn3txgNMJUXQ2b9Tm/v6xApqamMD01iQNdFjy8f1f0YXsmgvZwlt5+3LpxnbMD7wFAoVTCYDJCLmcwMTZWEiu3E71apt9lyRNWhoFarQZTUZF8bXmPGF7WSwLx+7iu7h4hfy3e3b97B3XmevS/fxz/yvPDuHwJFrhtO3ZCV1GBq5e/4OyaVXo99CYTJn0+3rbPk6JISnDSWfKEddmUB6NQIBwOIzQzg7r6BtSYzQhNTy8JZjE7O/Q5/uKn/x7v7N6DWze4PcaMC4IELn7gfR/+9//4e06up1KrYTCZEI1G4HY6ES6xzVsLFV7szTJJBO/FiAPNa9fCbrMt6TGX94jLe0ypGxw4iZ/+PH4/Z3surSGzIIGz9Pbj6uUv4OLgZlZvNKKiqgqTPh+CZbJ4lGuJQD5/+j3qas24//WrreNlMlkyeIkQahbnIBP3ipmGqlIJZLzI+QSOvv8BfvfJbxAKSadulvfA7dj1LpRKJW5c/bKg62i0WhhMJszPzWHM6ZTEX2yxc9iseO/4nyx5LRaLIbywgPDCAtLdQSYCmdojatMEcknvGIkkX4sK9Pf2ZPgx6urrcfTYcfzz7/9BkM/MBa+Bq6mthaW3D7/9za/zvoZcLofeaIRGq0XA5yvbomM+jDqdqKishF5vwORkIKefSQ1kOssDqVAooFWr4//MMJAtC+TyYHIZyCsXL+CHP/4JDnQdxpVLFzm7biF4DVx3bx8unjuLMXd+B97rKipgMJkQCgbhdjol+6i3mCVWgT96cJ+T62UNpFwOxbLCAJVanQyoDEj2iOmCybaIYfBU/H7O7XLhu2+HOfgNC8Nb4Hbt3gvEkNeTIkahgMFkhEKhhNfjKat9R4SWOJaYq8BlE4tGsRCNZjylSC6XvwrjYjBTAwlgxVB1tUBKrciZl8DVmevRZenBJ7/+76x/trKqCnqTCdOBALzj3J7fTVay26x4d+8+sZuRFI1GsxaWr1jpsThkTQ1k6lB1dHQUN69fxXvHjuP/iFzkzEvgEjtvsTnwXqlSwWAyAgDGXa6M/8IJtyY8HsQArKmpxYRnXOzmZMU2kImVHuMeD3bu2o06cz3G3C6BW/0K54HbvW8/5ufn8TWLA+9T16pNT01x3SSShWPxPq4YApdNukDu2rMXh3t6cen8OVHDBnAcuIbGJuw7eAif/Cq3oWSmtWpEWHabFRs6X8Pd27fEbgqnmprXoqvnCOZmZ/HJr34Jz7j4/0PhNHCJ8wCyHXhfyFo1wj27zQpLb5/YzeDUoW4Ltu3YiUvnzuL+3TtiNyeJs8DtO3gIweA07mU58J7vtWqEvanJSUxPT6OhsQmjzpdiN6cg6zdsxOGeIxh1OvHxR7+UXDUSJ4FrXtuCd3bvwd/96qOM72EYBnoJrFWTIlN1NfYdPIT6hka4Rp24evkL+LxeQduQOJa4WAOnVqvR1dOL9nXrcPHcWUnMuaXDyRZV3YtPJTNVK1RUVqKusRGRcLzYmMK2VCJsAFDf0Ih9Bw8J3ga7tTjPHQDi++P89d/8J4QXFvDxR7+UbNgADnq4g4e74fd58fDeygPvS3GtGh8SYcv0tRAcNiuO/+kPBP/cQhiMJhzuOQKD0YhTn/0z7Far2E3KqqAerqWtDdve3pH2aKkqvR7mxkbMz85h3OWisK3CNepc9WshzM7Owu1yFU0vt2PXu/jF3/xHjLnd+N0nvymKsAEF9nCJTVyDwVc3prRWjb2rl79YcQ8nhsSxxHabdP/jrW9oRFfPEcSiUfzPv/8Ybpe482ps5R24rp4jGHO78c3DB8nXaK1afnxeLwY+E39LAIfVir0HD+FLcfKe1f5DXdi1Zx8unTuLO7dzL6yQkryGlO3r12Pzlq3JA+81Wi3MjY1gFAzcTieFrUjZbVY0Na+FSqUSuylLqDUaAPGyrY8/+m9FGzYgr127ZPjhjz/EFxfOY8zlSu7NP+n3YyowSUtoilgsFkNLayuCwSC8E/xV1evW7sC+nj4c3rMRjPMxnIt1D+a9/w4fHqjEy8cjCMZM2HzsQxxunsS334+DUavx/On3mCvyZwGsezhLbx9ejozAbrPC3NiIWCwGt9NJC0NLhBDHEodGvsal8/fgV1ajxpg4t1uHNXV6RDwueKKAWs1AzqhRVV8Po5IpmYdurALXsWEjOl9/HXfu3EKlXg+vx4OAz0e9WglJTIDzTqODCpPwjC+u8GYaYK4GvB4fIgDm5jx4+vAppubmMLNQOttp5PzQhGEY9PQfxZ07tzETDGEykNuSfFJcXo6MwGiMbzbL5714VWMDqmZH4fQvvrCmHrXKKbx0vqqwCU1NIeQdRymNnXIOXENTEyYnJ2Guq0fNoRoEAn74/X4E/H4E/D4E/P7sFyFFITGsHP7mEU+foEZjQy0iYw8Xh49qMHW1METG8HBaAyC+wl9XY8KU/TZKp39jEbiXIyP4/OQJGIzG+B+DEa1t7SlfG1ICuDSIAb8fgUCxBtKEzu4j2LGhFjrvV/inP3yNYv1NcsV74OS1MNcxmBoex4JMhthcGK31tUDgHlxTi9tpMLXY1OTD8MVSihuLwMViMfh9Xvh96Ytq5XJ5MoiJELatW5/8ukqvXxrEZT2kdIeoPnx34SKq6n6EzjFXyYcNiJd5vf3OLn4/JAaodHrIY5Oo7tyJdUYAmmpUaQA/arFp7w7gm7Nwl1beuFueE41G4fN6M1a5xwNpWtJDtq9bn/y6qqpq1R4y123ceKE2oUYfwcQ98RcwCmHM7YZSoYCpupqfVQvRF3h45xmadh/FX7aM47ubF3Dl9ChCPd3o+bc/R8hrx/D1i/h6tMTSBgHPFogHciLjrkkMw6zoIdd1bEh+XVFZuTSEgXgQ/Yuv8Xq2QE0D1si8GHaXxqPpXNht8bPAuQycWqNJ7sA2/eQc/vGb1BX+Ptz87Lco3int3Ih6xneqSCQC78RExgnXeCCX9pDrOjYkv66oqEgJoH9FOAsJZJW5HrrZcbilOurlgcNmRWv7Ok5WS2t1Ohy2HMHU1CRu3riOudlZSR8nxifJBC6beCA98E6k3wlMoVCs6CE7NnYmv9bqdGl7yHhIV9u8iIG5vhoRzyN4ymhxut1mxYGu7oKv8+a27eiyHMGj+3cls/uxmIomcNmEw2FMeDwZt+aLB3JpD9mxsTP5tVarRcDvx5dfXFrydE7GNMJcy8D/eBTltHGf3+fD3NwszPX1eVXkV69Zgy7LEVRUVOLT//ePGHHYeWhl8SmZwGUTD+R4xq3gFEoljEbjil2eY5VmmLUheNzpN0bS6nRg5HJMl2DBtsNmQ0tbO+vA7dq9F109R3D54vmCD3EpNWUTuGzCCwtpt1Fj6htgjI1jeFwGuVy2YtOjjo2d6LL0QK1WpwxRl05/BPz+olxBYbdZ8caWN3H7qxs5vb+xuRldliOYn5/H3/36I3jGx3huYfGhwGVhNteC8T2EazaGKFbWjD66fw+P7t+L7xy9eL9oXBymNjQ2Jl9TqlQZ7yEDfh+CEtwq0G6z4uj7x3N678HDFry98x1cOn82685t5YwCtyodjGt0wMxc1nq+hfl5eMbHMv5fXaVSLd4vmpL3kA2NTcl7SKVSuWQO0r+shxRj785QMAjvhAfNLS144XCkfc/6DRvQZTkCt8uFjz/6Jaanaefs1VDgVjUH/5gPkc078W/69Lh74xpseU4NzM/PY3xsDONjGQKpVi95wmowGtHU3Jx8jVEoVgxTU//wdcpnYj5ueeDUajW6LEfQ3tGBS+fO4snwY14+v9TI2to7aG1NEVCr1a96yGXBNBiNYBhmRQj9KeHMd73i+g0bsWv3HvzD//pd8rU3tryJrp4j+G54GBfPn6Ut6lmgHq5IzM3NYcztzni4pVqjWdlDtrTAYIjfU8rk8pRCct+KcM7MpA+kw2bFD3/8EzAMg8qqKnRZjsBUXY1//exT2KzSOrC+GFAPVyY0Gs2qPaRMJlsRwkQwe/rfw5jLjTe3vYUbV6/i6uVLYv86RYsCRwAAGo12RQgNhvgDnjU1NZiY8ODzk5/BPToqdlOLGgWOEAFxcrYAISQ3FDhCBESBI0RAFDhCBESBI0RAFDhCBESBI0RAFDhCBESBI0RAFDhCBESBI0RAFDhCBESBI0RAFDhCBESBI0RAFDhCBESBI0RAFDhCBESBI0RAFDhCBESBI0RAFDhCBESBI0RAFDhCBESBI0RAFDhCBESBI0RAFDhCBESBI0RAFDhCBESBI0RAFDhCBESBI0RAFDhCBESBI0RAFDhCBESBI0RAFDhCBESBI0RAFDhCBESBI0RAFDhCBESBI0RAFDhCBPT/AfBqzC0ofupNAAAAAElFTkSuQmCC;" vertex="1" parent="9">
                    <mxGeometry x="540" y="35" width="220" height="224" as="geometry"/>
                </mxCell>
                <mxCell id="23" value="length" style="text;html=1;align=center;verticalAlign=middle;resizable=0;points=[];autosize=1;strokeColor=none;fillColor=none;" vertex="1" parent="1">
                    <mxGeometry x="30" y="215" width="60" height="30" as="geometry"/>
                </mxCell>
            </root>
        </mxGraphModel>
    </diagram>
</mxfile>